Coordinates
version=1
nRows=49
nColumns=12
inDegrees=yes

Units are S.I. units (second, meters, Newtons, ...)
Angles are in degrees

endheader
time	SC_y	SC_z	SC_x	AC_y	AC_z	AC_x	GH_y	GH_z	GH_yy	EL_x	PS_y
       0.0              -43.91          37.55          20.44          61.68         -11.64          1.207          93.22           37.9         -52.65          37.94          153.2
   0.03645              -43.92          37.54          20.44          61.68         -11.64          1.209          93.19          37.89         -52.66          37.95          153.2
    0.0729              -43.92          37.54          20.45          61.67         -11.64          1.211          93.16          37.88         -52.66          37.95          153.2
    0.1093              -43.92          37.54          20.45          61.67         -11.64          1.213          93.13          37.87         -52.67          37.96          153.2
    0.1458              -43.92          37.54          20.46          61.66         -11.64          1.215          93.09          37.86         -52.67          37.97          153.2
    0.1822              -43.93          37.54          20.46          61.66         -11.64          1.217          93.06          37.85         -52.68          37.98          153.2
    0.2187              -43.93          37.53          20.47          61.65         -11.64          1.219          93.02          37.84         -52.68          37.99          153.2
    0.2551              -43.93          37.53          20.48          61.64         -11.64          1.222          92.98          37.83         -52.69           38.0          153.1
    0.2916              -43.93          37.53          20.48          61.64         -11.63          1.224          92.93          37.82          -52.7          38.01          153.1
     0.328              -43.94          37.53          20.49          61.63         -11.63          1.227          92.88          37.81         -52.71          38.02          153.1
    0.3645              -43.94          37.52           20.5          61.62         -11.63           1.23          92.83          37.79         -52.71          38.03          153.1
    0.4009              -43.95          37.52          20.51          61.61         -11.63          1.234          92.78          37.78         -52.72          38.05          153.1
    0.4374              -43.95          37.51          20.52           61.6         -11.63          1.237          92.72          37.76         -52.73          38.06          153.1
    0.4738              -43.96          37.51          20.53          61.59         -11.63          1.241          92.65          37.75         -52.74          38.08          153.1
    0.5103              -43.96          37.51          20.54          61.58         -11.63          1.245          92.58          37.73         -52.75          38.09          153.1
    0.5467              -43.97           37.5          20.55          61.57         -11.62           1.25          92.51          37.71         -52.77          38.11          153.1
    0.5832              -43.97           37.5          20.56          61.56         -11.62          1.255          92.43          37.69         -52.78          38.13          153.1
    0.6196              -43.98          37.49          20.57          61.54         -11.62           1.26          92.34          37.66         -52.79          38.15          153.1
    0.6561              -43.99          37.48          20.59          61.53         -11.62          1.266          92.24          37.64         -52.81          38.18          153.0
    0.6925              -43.99          37.48           20.6          61.51         -11.61          1.273          92.13          37.61         -52.83           38.2          153.0
     0.729               -44.0          37.47          20.62          61.49         -11.61           1.28          92.01          37.58         -52.85          38.23          153.0
    0.7654              -44.01          37.46          20.64          61.47         -11.61          1.288          91.88          37.55         -52.87          38.26          153.0
    0.8019              -44.02          37.45          20.66          61.45          -11.6          1.297          91.74          37.51         -52.89           38.3          153.0
    0.8383              -44.04          37.44          20.69          61.42          -11.6          1.306          91.58          37.47         -52.91          38.33          152.9
    0.8748              -44.05          37.43          20.72           61.4         -11.59          1.317          91.41          37.42         -52.94          38.38          152.9
    0.9112              -44.06          37.42          20.75          61.37         -11.59          1.329          91.21          37.37         -52.97          38.42          152.9
    0.9477              -44.08          37.41          20.78          61.33         -11.58          1.342          90.99          37.31         -53.01          38.48          152.9
    0.9841               -44.1          37.39          20.82          61.29         -11.58          1.357          90.74          37.25         -53.05          38.54          152.8
     1.021              -44.12          37.37          20.86          61.25         -11.57          1.374          90.46          37.17         -53.09           38.6          152.8
     1.057              -44.14          37.35          20.91           61.2         -11.56          1.393          90.14          37.09         -53.14          38.68          152.7
     1.093              -44.17          37.33          20.96          61.14         -11.55          1.415          89.78          36.99          -53.2          38.77          152.7
      1.13               -44.2           37.3          21.03          61.07         -11.54           1.44          89.37          36.88         -53.27          38.87          152.6
     1.166              -44.24          37.27           21.1           61.0         -11.53          1.469          88.88          36.76         -53.35          38.98          152.5
     1.203              -44.28          37.24          21.18          60.91         -11.52          1.503          88.33          36.61         -53.44          39.12          152.5
     1.239              -44.33           37.2          21.28          60.81          -11.5          1.543          87.67          36.44         -53.54          39.28          152.4
     1.276              -44.38          37.15           21.4          60.69         -11.48          1.589           86.9          36.24         -53.66          39.46          152.3
     1.312              -44.45          37.09          21.54          60.54         -11.46          1.645          85.99           36.0         -53.81          39.68          152.1
     1.349              -44.53          37.02          21.71          60.37         -11.43          1.711          84.89          35.71         -53.98          39.95          152.0
     1.385              -44.63          36.94          21.91          60.16         -11.39          1.792          83.56          35.36          -54.2          40.27          151.8
     1.422              -44.75          36.84          22.16          59.91         -11.35           1.89          81.94          34.94         -54.46          40.66          151.5
     1.458               -44.9          36.71          22.46          59.59          -11.3          2.011          79.94          34.41         -54.78          41.14          151.2
     1.494              -45.09          36.56          22.84           59.2         -11.24          2.162          77.45          33.76         -55.18          41.74          150.9
     1.531              -45.32          36.36          23.32           58.7         -11.16          2.352           74.3          32.93         -55.68           42.5          150.4
     1.567              -45.62          36.11          23.93          58.07         -11.05          2.594          70.31          31.88         -56.32          43.46          149.8
     1.604               -46.0          35.79          24.71          57.27         -10.92          2.904          65.19          30.54         -57.13          44.69          149.1
      1.64              -46.49          35.38          25.71          56.23         -10.75          3.301          58.63          28.82         -58.18          46.28          148.1
     1.677              -47.12          34.85          26.99          54.91         -10.54          3.809          50.25          26.62         -59.52           48.3          146.8
     1.713              -47.91          34.19          28.59          53.25         -10.27          4.447          39.71          23.85         -61.21          50.84          145.3
      1.75              -48.87          33.39          30.55          51.23         -9.939          5.225          26.86          20.48         -63.26          53.93          143.4
